<?xml version="1.0" encoding="UTF-8" standalone="no"?><!DOCTYPE svg PUBLIC "-//W3C//DTD SVG 1.1//EN" "http://www.w3.org/Graphics/SVG/1.1/DTD/svg11.dtd"><svg width="100%" height="100%" viewBox="0 0 1800 1350" version="1.1" xmlns="http://www.w3.org/2000/svg" xmlns:xlink="http://www.w3.org/1999/xlink" xml:space="preserve" xmlns:serif="http://www.serif.com/" style="fill-rule:evenodd;clip-rule:evenodd;stroke-linecap:round;stroke-linejoin:round;stroke-miterlimit:1.5;"><g><path d="M1260.87,672.491c0,49.306 -39.091,89.336 -87.241,89.336" style="fill:none;stroke:#fff;stroke-width:10.26px;"/><path d="M943.302,671.757c0,1.083 -0.018,2.161 -0.056,3.235" style="fill:none;stroke:#fff;stroke-width:10.26px;"/><path d="M338.571,676.213c0,49.306 -39.091,89.337 -87.241,89.337" style="fill:none;stroke:#fff;stroke-width:10.26px;"/><path d="M481.864,676.213c-0,-49.306 39.091,-89.336 87.241,-89.336" style="fill:none;stroke:#fff;stroke-width:10.26px;"/><path d="M660.812,676.213c0,-49.306 39.092,-89.336 87.242,-89.336" style="fill:none;stroke:#fff;stroke-width:10.26px;"/><path d="M835.295,676.213c-0,-49.306 -39.092,-89.336 -87.241,-89.336" style="fill:none;stroke:#fff;stroke-width:10.26px;"/><path d="M1173.63,761.827c-48.15,0 -87.241,-40.03 -87.241,-89.336" style="fill:none;stroke:#fff;stroke-width:10.26px;"/><path d="M1296.7,672.491c0,69.552 -55.143,126.02 -123.064,126.02" style="fill:none;stroke:#fff;stroke-width:10.26px;"/><path d="M979.126,671.757c-0,27.771 -8.791,53.455 -23.677,74.292" style="fill:none;stroke:#fff;stroke-width:10.26px;"/><path d="M374.394,676.213c0,69.553 -55.143,126.02 -123.064,126.02" style="fill:none;stroke:#fff;stroke-width:10.26px;"/><path d="M446.041,676.213c-0,-69.552 55.143,-126.02 123.064,-126.02" style="fill:none;stroke:#fff;stroke-width:10.26px;"/><path d="M624.989,676.213c0,-34.9 13.885,-66.506 36.301,-89.336m69.898,-35.508c5.514,-0.775 11.144,-1.176 16.866,-1.176" style="fill:none;stroke:#fff;stroke-width:10.26px;"/><path d="M871.118,676.213c-0,-69.552 -55.143,-126.02 -123.064,-126.02" style="fill:none;stroke:#fff;stroke-width:10.26px;"/><path d="M1173.63,798.511c-41,-0 -77.345,-20.577 -99.714,-52.186" style="fill:none;stroke:#fff;stroke-width:10.26px;"/><path d="M1332.52,672.491c0,89.798 -71.195,162.703 -158.887,162.703" style="fill:none;stroke:#fff;stroke-width:10.26px;"/><path d="M1014.95,671.757c-0,43.399 -16.629,82.852 -43.713,112.036" style="fill:none;stroke:#fff;stroke-width:10.26px;"/><path d="M410.218,676.213c-0,89.799 -71.196,162.704 -158.888,162.704" style="fill:none;stroke:#fff;stroke-width:10.26px;"/><path d="M410.218,676.213c-0,-89.798 71.195,-162.703 158.887,-162.703" style="fill:none;stroke:#fff;stroke-width:10.26px;"/><path d="M729.002,514.67c6.247,-0.766 12.605,-1.16 19.052,-1.16m-158.888,162.703c0,-32.983 9.605,-63.687 26.104,-89.336" style="fill:none;stroke:#fff;stroke-width:10.26px;"/><path d="M906.941,676.213c0,-89.798 -71.195,-162.703 -158.887,-162.703" style="fill:none;stroke:#fff;stroke-width:10.26px;"/><path d="M1173.63,835.194c-45.569,0 -86.683,-19.686 -115.667,-51.2" style="fill:none;stroke:#fff;stroke-width:10.26px;"/><path d="M1368.34,672.491c-0,110.044 -87.247,199.387 -194.711,199.387" style="fill:none;stroke:#fff;stroke-width:10.26px;"/><path d="M1050.77,671.757c-0,56.383 -22.904,107.332 -59.696,143.613" style="fill:none;stroke:#fff;stroke-width:10.26px;"/><path d="M446.041,676.213c-0,110.045 -87.247,199.387 -194.711,199.387" style="fill:none;stroke:#fff;stroke-width:10.26px;"/><path d="M374.394,676.213c0,-110.044 87.247,-199.387 194.711,-199.387" style="fill:none;stroke:#fff;stroke-width:10.26px;"/><path d="M727.088,477.971c6.888,-0.756 13.883,-1.145 20.966,-1.145m-194.711,199.387c-0,-32.11 7.428,-62.457 20.62,-89.336" style="fill:none;stroke:#fff;stroke-width:10.26px;"/><path d="M942.764,676.213c0,-110.044 -87.247,-199.387 -194.71,-199.387" style="fill:none;stroke:#fff;stroke-width:10.26px;"/><path d="M1173.63,871.878c-52.718,-0 -100.571,-21.501 -135.645,-56.399" style="fill:none;stroke:#fff;stroke-width:10.26px;"/><path d="M1404.17,672.491c-0,130.29 -103.299,236.07 -230.534,236.07" style="fill:none;stroke:#fff;stroke-width:10.26px;"/><path d="M1086.6,671.757c0,26.053 -4.13,51.125 -11.756,74.568c-4.262,13.103 -9.617,25.698 -15.953,37.669c-5.852,11.056 -12.54,21.581 -19.978,31.485c-7.298,9.718 -15.317,18.838 -23.976,27.277" style="fill:none;stroke:#fff;stroke-width:10.26px;"/><path d="M481.864,676.213c-0,130.291 -103.299,236.071 -230.534,236.071" style="fill:none;stroke:#fff;stroke-width:10.26px;"/><path d="M338.571,676.213c0,-130.29 103.299,-236.07 230.534,-236.07" style="fill:none;stroke:#fff;stroke-width:10.26px;"/><path d="M725.359,441.275c7.467,-0.749 15.037,-1.132 22.695,-1.132m-230.534,236.07c-0,-28.272 4.864,-55.389 13.78,-80.523" style="fill:none;stroke:#fff;stroke-width:10.26px;"/><path d="M943.093,550.372c-40.853,-66.215 -112.967,-110.229 -195.039,-110.229" style="fill:none;stroke:#fff;stroke-width:10.26px;"/><path d="M1173.63,908.561c-127.235,-0 -230.534,-105.78 -230.534,-236.07" style="fill:none;stroke:#fff;stroke-width:10.26px;"/><path d="M554.213,896.314c0,10.123 -8.026,18.342 -17.911,18.342c-9.886,-0 -17.912,-8.219 -17.912,-18.342" style="fill:none;stroke:#fff;stroke-width:10.26px;"/><path d="M871.453,896.314c-0,10.123 -8.026,18.342 -17.912,18.342c-9.886,-0 -17.912,-8.219 -17.912,-18.342" style="fill:none;stroke:#fff;stroke-width:10.26px;"/><path d="M590.036,896.314c0,10.123 -8.025,18.342 -17.911,18.342c-9.886,-0 -17.912,-8.219 -17.912,-18.342" style="fill:none;stroke:#fff;stroke-width:10.26px;"/><path d="M907.276,896.314c-0,10.123 -8.026,18.342 -17.912,18.342c-9.885,-0 -17.911,-8.219 -17.911,-18.342" style="fill:none;stroke:#fff;stroke-width:10.26px;"/><path d="M625.86,896.314c-0,10.123 -8.026,18.342 -17.912,18.342c-9.886,-0 -17.912,-8.219 -17.912,-18.342" style="fill:none;stroke:#fff;stroke-width:10.26px;"/><path d="M943.099,896.314c-0,10.123 -8.026,18.342 -17.912,18.342c-9.885,-0 -17.911,-8.219 -17.911,-18.342" style="fill:none;stroke:#fff;stroke-width:10.26px;"/><path d="M662.399,896.314c0,10.123 -8.026,18.342 -17.911,18.342c-9.886,-0 -17.912,-8.219 -17.912,-18.342" style="fill:none;stroke:#fff;stroke-width:10.26px;"/><path d="M979.639,896.314c-0,10.123 -8.026,18.342 -17.912,18.342c-9.886,-0 -17.912,-8.219 -17.912,-18.342" style="fill:none;stroke:#fff;stroke-width:10.26px;"/><path d="M978.206,453.686c-0,-10.123 -8.026,-18.342 -17.912,-18.342c-9.886,0 -17.912,8.219 -17.912,18.342" style="fill:none;stroke:#fff;stroke-width:10.26px;"/><path d="M1294.6,453.686c-0,-10.123 -8.026,-18.342 -17.912,-18.342c-9.886,0 -17.912,8.219 -17.912,18.342" style="fill:none;stroke:#fff;stroke-width:10.26px;"/><path d="M1013.31,453.686c0,-10.123 -8.026,-18.342 -17.911,-18.342c-9.886,0 -17.912,8.219 -17.912,18.342" style="fill:none;stroke:#fff;stroke-width:10.26px;"/><path d="M1329.71,453.686c0,-10.123 -8.026,-18.342 -17.911,-18.342c-9.886,0 -17.912,8.219 -17.912,18.342" style="fill:none;stroke:#fff;stroke-width:10.26px;"/><path d="M1049.85,453.686c-0,-10.123 -8.026,-18.342 -17.912,-18.342c-9.885,0 -17.911,8.219 -17.911,18.342" style="fill:none;stroke:#fff;stroke-width:10.26px;"/><path d="M1366.25,453.686c-0,-10.123 -8.026,-18.342 -17.912,-18.342c-9.885,0 -17.911,8.219 -17.911,18.342" style="fill:none;stroke:#fff;stroke-width:10.26px;"/><path d="M1085.67,453.686c0,-10.123 -8.026,-18.342 -17.911,-18.342c-9.886,0 -17.912,8.219 -17.912,18.342" style="fill:none;stroke:#fff;stroke-width:10.26px;"/><path d="M1402.07,453.686c0,-10.123 -8.026,-18.342 -17.912,-18.342c-9.885,0 -17.911,8.219 -17.911,18.342" style="fill:none;stroke:#fff;stroke-width:10.26px;"/><path d="M245.833,912.284l0.31,-146.734" style="fill:none;stroke:#fff;stroke-width:10.26px;"/><path d="M662.041,896.314l-1.229,-220.101" style="fill:none;stroke:#fff;stroke-width:10.26px;"/><path d="M1087.01,673.787l-1.229,-220.101" style="fill:none;stroke:#fff;stroke-width:10.26px;"/><path d="M1403.69,673.787l-1.229,-220.101" style="fill:none;stroke:#fff;stroke-width:10.26px;"/><path d="M567.818,586.877l180.236,-0" style="fill:none;stroke:#fff;stroke-width:10.26px;"/><path d="M979.507,896.314l0,-96.513" style="fill:none;stroke:#fff;stroke-width:10.26px;"/><path d="M626.218,896.314l-1.229,-220.101" style="fill:none;stroke:#fff;stroke-width:10.26px;"/><path d="M1051.18,673.787l-1.229,-220.101" style="fill:none;stroke:#fff;stroke-width:10.26px;"/><path d="M1367.87,673.787l-1.229,-220.101" style="fill:none;stroke:#fff;stroke-width:10.26px;"/><path d="M567.818,550.193l178.948,1.289" style="fill:none;stroke:#fff;stroke-width:10.26px;"/><path d="M942.764,896.314l0,-220.101" style="fill:none;stroke:#fff;stroke-width:10.26px;"/><path d="M248.281,875.6l2.904,0m-2.904,-0l2.904,0" style="fill:none;stroke:#fff;stroke-width:10.26px;"/><path d="M590.395,896.314l-1.229,-220.101" style="fill:none;stroke:#fff;stroke-width:10.26px;"/><path d="M1015.36,673.787l-1.229,-220.101" style="fill:none;stroke:#fff;stroke-width:10.26px;"/><path d="M1332.05,673.787l-1.229,-220.101" style="fill:none;stroke:#fff;stroke-width:10.26px;"/><path d="M567.818,513.51l179.377,1.291" style="fill:none;stroke:#fff;stroke-width:10.26px;"/><path d="M906.941,896.314l0,-220.101" style="fill:none;stroke:#fff;stroke-width:10.26px;"/><path d="M248.644,838.917l2.662,0m-2.662,-0l2.662,0" style="fill:none;stroke:#fff;stroke-width:10.26px;"/><path d="M554.572,896.314l-1.229,-220.101" style="fill:none;stroke:#fff;stroke-width:10.26px;"/><path d="M979.536,673.787l-1.228,-220.101" style="fill:none;stroke:#fff;stroke-width:10.26px;"/><path d="M1296.22,673.787l-1.228,-220.101" style="fill:none;stroke:#fff;stroke-width:10.26px;"/><path d="M569.105,476.826l178.52,1.294" style="fill:none;stroke:#fff;stroke-width:10.26px;"/><path d="M871.118,896.314l-0,-220.101" style="fill:none;stroke:#fff;stroke-width:10.26px;"/><path d="M249.008,802.233l2.322,0l0.098,0m-2.42,0l2.322,0l0.098,0" style="fill:none;stroke:#fff;stroke-width:10.26px;"/><path d="M518.748,896.314l-1.228,-220.101" style="fill:none;stroke:#fff;stroke-width:10.26px;"/><path d="M943.713,673.787l-1.228,-220.101" style="fill:none;stroke:#fff;stroke-width:10.26px;"/><path d="M1260.4,673.787l-1.228,-220.101" style="fill:none;stroke:#fff;stroke-width:10.26px;"/><path d="M569.105,440.143l178.949,1.296" style="fill:none;stroke:#fff;stroke-width:10.26px;"/><path d="M835.295,896.314l-0,-220.101" style="fill:none;stroke:#fff;stroke-width:10.26px;"/><path d="M249.372,765.55l2.178,0" style="fill:none;stroke:#fff;stroke-width:10.26px;"/></g></svg>